Coordinates
version=1
nRows=12
nColumns=23
inDegrees=yes

Units are S.I. units (second, meters, Newtons, ...)
If the header above contains a line with 'inDegrees', this indicates whether rotational values are in degrees (yes) or radians (no).

endheader
time	pelvis_tilt	pelvis_list	pelvis_rotation	pelvis_tx	pelvis_ty	pelvis_tz	hip_flexion_r	hip_adduction_r	hip_rotation_r	knee_angle_r	knee_angle_r_beta	ankle_angle_r	subtalar_angle_r	mtp_angle_r	hip_flexion_l	hip_adduction_l	hip_rotation_l	knee_angle_l	knee_angle_l_beta	ankle_angle_l	subtalar_angle_l	mtp_angle_l
      7.50000000	    -16.37790778	     -0.52040629	     -3.83087190	      2.28627094	      1.09185477	      1.04452881	     41.53553521	      0.77194379	    -17.04872645	     19.06188283	      0.33269262	      2.89734598	     12.23323735	      0.00000000	     -4.13857002	     -5.84094939	    -16.15758051	     44.96500468	      0.78478738	    -12.78675665	    -14.51046235	      0.00000000
      7.50666667	    -16.10892721	     -0.44825717	     -3.88892231	      2.28608650	      1.08951144	      1.04528632	     40.76097428	      1.11856145	    -16.27493452	     17.38445778	      0.30341603	      3.08356798	     12.42687297	      0.00000000	     -3.61681130	     -5.94436178	    -15.31381158	     48.49384763	      0.84637731	    -12.45004726	    -14.99914442	      0.00000000
      7.51333333	    -15.75362617	     -0.40612788	     -4.05496050	      2.28592281	      1.08681644	      1.04593624	     39.94241929	      1.53596735	    -14.98909583	     16.13192469	      0.28155520	      3.07726395	     11.68167763	      0.00000000	     -3.15767491	     -6.07167369	    -14.71841118	     52.06641140	      0.90873031	    -12.05947344	    -15.13807423	      0.00000000
      7.52000000	    -15.35720752	     -0.38233371	     -4.21907730	      2.28575337	      1.08364494	      1.04637839	     39.33081306	      1.67841669	    -14.56505399	     15.82815721	      0.27625346	      3.14298855	     11.74127479	      0.00000000	     -2.67679095	     -6.13910528	    -14.05725327	     55.65201721	      0.97131094	    -11.96022526	    -15.50908917	      0.00000000
      7.52666667	    -14.99380353	     -0.38982319	     -4.40162753	      2.28554639	      1.07996651	      1.04669886	     38.85534898	      1.77455146	    -14.18483989	     16.07547451	      0.28056996	      3.04091962	     11.47127950	      0.00000000	     -2.09574581	     -6.28425057	    -13.57296794	     59.30067942	      1.03499210	    -11.83429706	    -15.62389626	      0.00000000
      7.53333333	    -14.26848851	     -0.26644491	     -4.77889225	      2.28560483	      1.07658729	      1.04706606	     38.04450478	      1.78122936	    -13.62628881	     16.73549650	      0.29208952	      2.79444881	     11.54231120	      0.00000000	     -1.99375607	     -6.20640203	    -13.37426841	     62.65443265	      1.09352614	    -12.28128773	    -15.82930345	      0.00000000
      7.54000000	    -14.31280403	     -0.46866170	     -4.87202732	      2.28506767	      1.07115635	      1.04704493	     38.37010442	      1.77505140	    -13.77749542	     18.43247125	      0.32170731	      2.98210714	     10.55421884	      0.00000000	     -0.74820892	     -6.65440833	    -12.92170620	     66.59695183	      1.16233608	    -11.72318587	    -15.92663719	      0.00000000
      7.54666667	    -13.99849445	     -0.56104126	     -5.08269840	      2.28473608	      1.06609928	      1.04706008	     38.29768872	      1.72126156	    -13.60474826	     20.35405253	      0.35524523	      3.14998229	      9.81606228	      0.00000000	      0.03967881	     -6.92031359	    -12.65235485	     70.22839576	      1.22571673	    -11.71665759	    -16.15936111	      0.00000000
      7.55333333	    -13.89477566	     -0.57879618	     -5.31739039	      2.28416238	      1.06035969	      1.04708381	     38.58950078	      1.61145280	    -13.24424455	     22.78103907	      0.39760414	      3.49453531	      8.81813635	      0.00000000	      1.14306026	     -7.12701538	    -12.42298181	     73.85890212	      1.28908102	    -11.65988084	    -16.44349412	      0.00000000
      7.56000000	    -13.82137544	     -0.63218931	     -5.51218429	      2.28343432	      1.05433403	      1.04705486	     38.93814653	      1.56732225	    -12.65459154	     25.47128980	      0.44455787	      4.16786037	      7.43294032	      0.00000000	      2.35396280	     -7.39887682	    -12.18390276	     77.44974543	      1.35175306	    -11.56743424	    -16.79426475	      0.00000000
      7.56666667	    -13.85134553	     -0.68579482	     -5.68346689	      2.28243605	      1.04798070	      1.04707308	     39.42853218	      1.61743510	    -11.77042160	     28.36864027	      0.49512618	      5.17290440	      5.67771751	      0.00000000	      3.76937841	     -7.71021144	    -11.93651068	     81.00882955	      1.41387080	    -11.38956950	    -17.13024289	      0.00000000
      7.57333333	    -13.98542744	     -0.76174784	     -5.81732546	      2.28119449	      1.04144794	      1.04718291	     39.99965167	      1.81166859	    -10.63413369	     31.32780009	      0.54677326	      6.49242230	      3.55110964	      0.00000000	      5.39527431	     -8.08998886	    -11.65164603	     84.50773423	      1.47493821	    -11.12398531	    -17.45362652	      0.00000000
